<?xml version="1.0" standalone="no"?>
<!DOCTYPE svg PUBLIC "-//W3C//DTD SVG 20010904//EN"
 "http://www.w3.org/TR/2001/REC-SVG-20010904/DTD/svg10.dtd">
<svg version="1.0" xmlns="http://www.w3.org/2000/svg"
 width="1024.000000pt" height="1024.000000pt" viewBox="0 0 1024.000000 1024.000000"
 preserveAspectRatio="xMidYMid meet">

<g transform="translate(0.000000,1024.000000) scale(0.100000,-0.100000)"
fill="#000000" stroke="none">
<path d="M2653 8619 c-248 -32 -512 -166 -684 -346 -148 -156 -231 -292 -289
-470 -63 -197 -60 -36 -60 -2758 0 -2720 -3 -2579 60 -2765 52 -156 110 -260
226 -405 115 -143 242 -242 421 -326 134 -63 246 -95 385 -109 82 -8 764 -10
2463 -8 2349 4 2350 4 2440 25 50 11 119 31 154 43 387 131 699 464 791 845
42 173 11 263 -110 319 -44 21 -61 21 -780 27 -801 7 -818 8 -1034 68 -413
115 -725 397 -873 790 -27 71 -63 219 -63 256 0 14 -5 25 -11 25 -6 0 -9 7 -5
15 3 9 0 15 -10 15 -8 0 -12 5 -9 10 4 6 -3 9 -16 7 -13 -2 -26 -12 -30 -23
-13 -32 -10 -36 13 -20 20 14 24 14 40 -1 22 -20 24 -69 2 -77 -22 -9 -37 3
-25 18 6 7 8 16 5 19 -4 3 -14 -3 -24 -15 -13 -17 -17 -18 -17 -5 0 9 4 14 8
12 4 -3 9 2 13 10 3 8 1 17 -4 20 -6 4 -10 0 -10 -7 0 -10 -2 -10 -9 1 -5 8
-16 11 -30 6 -13 -4 -21 -2 -21 5 0 7 9 14 21 17 12 4 18 11 15 20 -3 8 -2 12
3 9 5 -3 12 1 15 10 3 9 2 12 -5 9 -5 -4 -16 -2 -24 5 -11 9 -12 7 -8 -9 3
-13 1 -21 -8 -21 -7 0 -9 3 -6 7 4 3 1 11 -6 17 -7 6 -18 23 -25 38 -10 25
-10 27 10 25 11 -1 22 4 24 11 1 7 0 8 -3 2 -8 -16 -23 -12 -23 7 0 15 -2 14
-14 -3 -14 -19 -18 -20 -55 -23 -11 0 -24 -14 -31 -31 -9 -22 -17 -29 -30 -25
-10 3 -24 0 -32 -8 -7 -7 -18 -12 -25 -10 -10 4 -10 -2 -4 -36 1 -2 11 9 23
24 l21 27 13 -23 c8 -14 13 -18 14 -9 0 12 3 12 16 -2 18 -18 28 -68 13 -68
-5 0 -9 5 -9 10 0 14 -16 12 -33 -4 -13 -13 -14 -12 -14 11 0 14 3 20 7 14 9
-15 40 -3 40 15 0 7 -6 11 -14 8 -8 -3 -24 -1 -35 6 -17 9 -21 8 -21 -4 0 -11
-8 -15 -30 -12 -16 2 -31 -2 -34 -8 -2 -6 -5 -3 -5 6 -1 9 4 20 9 23 6 3 10 1
10 -4 0 -6 5 -11 10 -11 7 0 7 6 0 20 -12 23 11 82 24 61 4 -6 2 -11 -3 -11
-6 0 -11 -4 -11 -10 0 -16 17 -11 24 7 7 18 -12 35 -31 28 -13 -5 -46 41 -38
54 3 5 1 20 -4 33 -8 19 -10 15 -10 -24 -1 -36 4 -53 20 -69 22 -22 21 -40 -2
-48 -11 -3 -12 -1 -2 10 7 9 8 20 4 28 -5 8 -11 9 -15 3 -3 -5 -6 -189 -6
-408 -1 -458 2 -485 86 -651 134 -267 381 -432 749 -499 92 -17 173 -18 998
-19 493 0 897 -1 897 -1 0 -1 -12 -23 -27 -50 -38 -68 -176 -204 -252 -248
-82 -48 -190 -84 -288 -97 -52 -6 -858 -9 -2388 -7 l-2310 3 -73 23 c-143 44
-265 121 -355 224 -47 55 -107 139 -107 152 0 2 357 2 793 0 802 -4 1043 3
1175 31 242 51 447 166 578 323 68 82 157 260 178 359 13 58 16 142 16 432 0
326 -2 361 -16 361 -13 0 -14 -3 -5 -13 8 -10 7 -14 -3 -14 -7 0 -12 10 -11
21 2 32 -8 44 -15 16 -3 -14 -15 -27 -25 -29 -19 -3 -19 -2 -2 16 19 22 23 38
5 27 -8 -5 -9 -2 -5 10 4 10 7 23 7 29 0 8 3 7 9 -1 6 -11 10 -9 14 7 5 19 3
20 -22 7 -14 -7 -33 -11 -41 -9 -13 4 -13 3 0 -6 8 -5 17 -8 21 -5 4 2 6 -7 5
-21 0 -14 -5 -24 -11 -24 -27 3 -37 -2 -31 -16 3 -8 1 -15 -4 -15 -6 0 -10 7
-10 17 0 18 -13 10 -16 -11 -3 -19 -35 -66 -45 -66 -12 0 -11 17 1 25 8 5 7
12 -2 23 -11 15 -11 15 4 4 21 -17 31 -2 34 53 l3 40 -13 -30 c-7 -16 -11 -34
-8 -40 3 -5 -4 -2 -15 8 -15 13 -23 15 -28 7 -4 -7 -16 -10 -26 -7 -13 4 -19
0 -19 -11 0 -14 -2 -14 -9 -3 -7 11 -11 9 -20 -8 -7 -12 -16 -19 -22 -15 -7 4
-6 10 0 18 6 7 8 16 5 19 -4 3 5 9 20 13 14 3 23 10 20 16 -3 5 -12 4 -22 -4
-13 -11 -15 -10 -9 5 3 9 3 17 -2 17 -5 0 -12 -12 -16 -27 -9 -37 -23 -53 -41
-46 -8 3 -14 0 -14 -7 0 -7 -6 -10 -14 -7 -19 8 -28 -3 -16 -18 7 -9 6 -14 -4
-18 -8 -3 -17 -25 -21 -49 -30 -184 -186 -471 -340 -623 -233 -231 -544 -363
-930 -395 -129 -10 -1083 -14 -1109 -4 -13 5 -16 25 -16 120 l0 114 378 0
c381 0 470 6 647 44 178 38 379 121 516 213 223 151 407 396 486 649 l28 89 5
1320 5 1320 23 47 c13 26 44 66 69 87 84 74 54 72 854 69 l714 -3 42 -23 c63
-33 106 -74 133 -129 l25 -48 5 -1325 c5 -1324 5 -1325 27 -1402 28 -98 77
-205 136 -293 217 -330 560 -530 1024 -600 151 -22 869 -22 956 1 176 45 301
161 366 338 l26 71 0 2155 0 2155 -28 90 c-102 327 -309 581 -597 733 -120 64
-239 105 -359 126 -85 14 -325 16 -2490 15 -1318 -1 -2424 -5 -2458 -10z
m4871 -504 c252 -53 487 -276 555 -525 21 -74 21 -90 21 -1692 l0 -1618 -580
0 -580 0 -1 823 c-1 452 -1 1047 0 1322 2 429 0 512 -14 585 -61 317 -284 564
-595 662 l-75 23 -1135 0 -1135 0 -78 -23 c-199 -57 -370 -186 -481 -362 -49
-76 -68 -115 -104 -213 l-27 -72 -3 -1372 -3 -1373 -583 0 -584 0 -7 393 c-4
215 -5 941 -3 1612 4 1208 4 1221 25 1297 39 139 114 260 227 365 77 72 216
146 316 167 100 22 4743 22 4844 1z m-1460 -945 c174 -26 340 -182 380 -360
14 -61 16 -243 16 -1542 l-1 -1473 -34 67 c-19 36 -51 120 -72 185 l-38 118
-5 1245 -5 1245 -23 60 c-43 113 -125 201 -241 258 l-66 32 -855 0 -855 0 -57
-23 c-125 -50 -212 -140 -260 -268 l-23 -59 -5 -1250 -5 -1250 -28 -90 c-16
-49 -48 -130 -72 -180 l-44 -90 2 1495 3 1495 23 65 c59 169 196 293 354 319
74 12 1826 13 1911 1z m-2774 -3290 l0 -100 -585 0 -585 0 0 100 0 100 585 0
585 0 0 -100z m4810 0 l0 -100 -579 0 -579 0 -3 23 c-2 12 -3 57 -1 100 l4 77
579 0 579 0 0 -100z m-2626 39 c-4 -7 1 -7 16 1 18 10 24 9 31 -1 4 -7 6 -16
3 -18 -3 -3 -9 1 -14 9 -8 12 -10 11 -10 -6 0 -27 10 -36 25 -24 9 8 14 6 19
-5 3 -8 1 -15 -4 -15 -6 0 -10 -7 -10 -15 0 -18 -16 -20 -26 -3 -4 7 -3 8 4 4
7 -4 12 -2 12 3 0 6 -4 11 -10 11 -13 0 -28 -32 -23 -47 6 -18 -14 -16 -20 1
-3 8 -1 17 6 20 9 3 8 7 -3 15 -8 5 -11 13 -7 18 5 4 12 1 16 -6 6 -9 9 -5 9
13 0 14 -5 26 -10 26 -5 0 -7 -4 -4 -8 2 -4 -4 -14 -15 -20 -18 -12 -19 -10
-13 15 9 36 13 43 25 43 6 0 7 -5 3 -11z m-739 -88 c-3 -6 -11 -11 -16 -11 -5
0 -4 6 3 14 14 16 24 13 13 -3z m112 -3 c-3 -8 -6 -5 -6 6 -1 11 2 17 5 13 3
-3 4 -12 1 -19z m703 -13 c0 -8 -9 -15 -19 -15 -11 0 -23 -4 -26 -10 -3 -5
-11 -10 -16 -10 -6 0 -4 7 5 15 8 8 22 15 30 15 9 0 16 5 16 10 0 6 2 10 5 10
3 0 5 -7 5 -15z m-827 -8 c4 3 7 -1 7 -10 0 -19 -16 -23 -22 -6 -3 9 -10 9
-27 0 -24 -13 -37 -9 -27 8 4 6 13 8 21 4 8 -3 15 0 15 7 0 9 3 10 13 1 8 -6
17 -8 20 -4z m-104 -11 c9 -11 6 -13 -14 -10 -17 1 -25 -2 -22 -9 3 -7 10 -11
16 -9 6 1 11 -2 11 -8 0 -14 -13 -13 -35 3 -20 15 -12 42 11 33 8 -3 14 -1 14
4 0 14 6 12 19 -4z m201 2 c0 -8 3 -9 8 -3 12 17 32 16 25 -1 -3 -9 -13 -14
-24 -11 -11 3 -22 1 -25 -4 -3 -5 -11 -9 -17 -9 -7 0 -4 5 6 11 9 6 15 14 12
20 -4 5 -1 9 4 9 6 0 11 -6 11 -12z m76 -4 c-3 -9 -6 -23 -6 -31 0 -12 -3 -13
-15 -3 -11 9 -12 16 -2 31 14 23 32 25 23 3z m44 -14 c0 -5 -7 -7 -15 -4 -8 4
-12 10 -9 15 6 11 24 2 24 -11z m647 5 c0 -8 -4 -15 -9 -15 -5 0 -6 -5 -3 -10
4 -6 12 -7 18 -4 8 4 7 2 -1 -7 -11 -12 -14 -12 -21 0 -9 14 -3 51 8 51 4 0 8
-7 8 -15z m-221 -17 c4 -7 4 -10 -1 -6 -4 4 -15 2 -24 -5 -14 -11 -14 -10 -2
6 16 20 18 21 27 5z m-716 -8 c0 -5 7 -7 15 -4 9 4 15 0 15 -9 0 -13 -5 -14
-30 -6 -16 6 -27 15 -24 20 7 12 24 12 24 -1z m260 -37 c-11 -17 -11 -17 -6 0
3 10 6 24 7 30 0 9 2 9 5 0 3 -7 0 -20 -6 -30z m633 4 c-3 -4 -6 -7 -7 -5 -1
2 -8 12 -16 22 -14 18 -14 18 7 6 12 -8 19 -18 16 -23z m-670 0 c4 3 7 4 7 0
0 -18 -21 -14 -30 5 -10 21 -10 21 3 6 8 -10 17 -15 20 -11z m757 8 c-7 -8
-17 -15 -22 -15 -11 0 14 29 26 30 5 0 3 -7 -4 -15z m-1020 1 c0 -2 -3 -11 -6
-20 -7 -18 -34 -22 -34 -5 0 5 5 7 12 3 8 -5 9 -2 5 9 -4 11 -1 17 8 17 8 0
15 -2 15 -4z m152 -3 c-6 -2 -9 -10 -6 -15 4 -7 2 -8 -5 -4 -13 9 -5 26 12 25
9 0 8 -2 -1 -6z m48 -8 c0 -8 -4 -15 -9 -15 -13 0 -22 16 -14 24 11 11 23 6
23 -9z m511 -8 c-10 -9 -11 -8 -5 6 3 10 9 15 12 12 3 -3 0 -11 -7 -18z m-762
-21 c-3 -3 -11 5 -18 17 -13 21 -12 21 5 5 10 -10 16 -20 13 -22z m1082 -2
c-11 -15 -21 -24 -21 -20 0 10 34 55 39 51 2 -2 -6 -16 -18 -31z m-961 6 c0
-5 -7 -7 -15 -4 -8 4 -15 1 -15 -7 0 -7 -3 -10 -6 -6 -9 9 5 27 22 27 8 0 14
-4 14 -10z m-69 -23 c-10 -9 -11 -8 -5 6 3 10 9 15 12 12 3 -3 0 -11 -7 -18z
m-1363 -227 c-6 -20 -115 -102 -173 -130 -123 -61 -176 -68 -566 -73 -211 -3
-361 -1 -371 4 -15 8 -18 25 -18 109 l0 100 566 0 c371 0 565 -3 562 -10z
m4852 -94 c0 -91 -2 -104 -17 -107 -10 -2 -171 -4 -358 -3 -274 1 -354 4 -414
17 -93 21 -185 63 -259 121 -109 83 -155 76 482 76 l566 0 0 -104z"/>
<path d="M2680 7551 c-70 -21 -130 -73 -152 -130 -16 -44 -11 -126 11 -169 55
-108 197 -144 294 -76 106 75 122 210 36 308 -30 34 -53 50 -92 61 -56 16 -61
17 -97 6z"/>
<path d="M7446 7545 c-92 -32 -141 -102 -141 -200 0 -84 35 -143 107 -179 108
-54 222 -15 278 94 54 107 -13 249 -134 285 -59 18 -60 18 -110 0z"/>
<path d="M2674 6481 c-53 -13 -103 -50 -130 -97 -23 -39 -26 -53 -22 -109 3
-53 9 -71 34 -102 44 -55 98 -83 160 -83 134 0 235 132 194 255 -32 95 -142
158 -236 136z"/>
<path d="M7468 6480 c-57 -11 -113 -53 -138 -105 -32 -67 -25 -150 17 -202
101 -126 270 -107 344 39 69 136 -65 298 -223 268z"/>
<path d="M2635 5422 c-140 -67 -155 -258 -27 -347 38 -26 52 -30 111 -30 59 0
73 4 110 29 23 16 54 49 68 73 52 89 13 218 -81 266 -55 29 -131 32 -181 9z"/>
<path d="M7430 5425 c-57 -26 -99 -74 -116 -132 -14 -48 -14 -58 0 -106 17
-59 60 -107 118 -131 121 -51 263 33 276 163 6 68 -33 151 -90 188 -50 33
-135 41 -188 18z"/>
<path d="M4785 4020 c-3 -5 -1 -10 4 -10 6 0 11 5 11 10 0 6 -2 10 -4 10 -3 0
-8 -4 -11 -10z"/>
<path d="M5364 4008 c-4 -13 -12 -26 -18 -30 -7 -5 -5 -8 6 -8 9 0 18 -5 20
-12 2 -6 4 8 5 30 1 47 -2 52 -13 20z"/>
<path d="M5450 3995 c-7 -8 -9 -15 -5 -15 4 0 1 -8 -6 -17 -13 -16 -12 -17 4
-4 9 7 17 20 17 28 0 13 3 13 16 3 12 -11 18 -10 32 5 16 18 16 18 0 6 -14
-10 -21 -11 -32 -2 -10 9 -16 8 -26 -4z"/>
<path d="M4560 3989 c0 -5 5 -7 10 -4 6 3 10 8 10 11 0 2 -4 4 -10 4 -5 0 -10
-5 -10 -11z"/>
<path d="M5545 3990 c3 -5 8 -10 11 -10 2 0 4 5 4 10 0 6 -5 10 -11 10 -5 0
-7 -4 -4 -10z"/>
<path d="M5583 3980 c1 -11 5 -20 9 -20 11 0 10 28 -1 35 -6 3 -9 -4 -8 -15z"/>
<path d="M4765 3980 c4 -6 11 -8 16 -5 14 9 11 15 -7 15 -8 0 -12 -5 -9 -10z"/>
<path d="M5390 3970 c0 -5 5 -10 11 -10 5 0 7 5 4 10 -3 6 -8 10 -11 10 -2 0
-4 -4 -4 -10z"/>
<path d="M4680 3961 c-8 -6 -17 -8 -21 -5 -4 2 -10 0 -14 -6 -9 -15 18 -12 41
5 21 16 17 20 -6 6z"/>
<path d="M4792 3943 c-11 -13 -17 -23 -12 -23 5 0 16 10 24 22 14 20 21 18 17
-4 -2 -14 8 -8 18 10 14 27 -22 23 -47 -5z"/>
<path d="M5614 3958 c4 -14 0 -18 -18 -18 -24 0 -54 -26 -43 -37 4 -3 9 2 13
11 6 16 8 16 28 -1 11 -10 18 -14 13 -9 -4 5 -1 17 7 25 11 12 12 21 5 31 -9
12 -10 12 -5 -2z"/>
<path d="M4568 3953 c7 -3 16 -2 19 1 4 3 -2 6 -13 5 -11 0 -14 -3 -6 -6z"/>
<path d="M4740 3956 c0 -2 9 -6 20 -9 11 -3 20 -1 20 4 0 5 -9 9 -20 9 -11 0
-20 -2 -20 -4z"/>
<path d="M4865 3949 c-4 -6 -5 -12 -2 -15 2 -3 7 2 10 11 7 17 1 20 -8 4z"/>
<path d="M4925 3950 c-3 -5 -1 -10 4 -10 6 0 11 5 11 10 0 6 -2 10 -4 10 -3 0
-8 -4 -11 -10z"/>
<path d="M5648 3953 c7 -3 16 -2 19 1 4 3 -2 6 -13 5 -11 0 -14 -3 -6 -6z"/>
<path d="M5393 3932 c-3 -9 -8 -20 -10 -24 -2 -5 1 -8 6 -8 6 0 11 6 11 14 0
8 8 16 18 18 16 3 16 4 -1 11 -12 4 -20 1 -24 -11z"/>
<path d="M4685 3922 c-9 -24 -5 -42 9 -42 8 0 16 -5 18 -12 3 -9 6 -9 12 0 4
7 2 12 -5 12 -8 0 -8 4 1 15 9 10 9 15 1 15 -6 0 -11 -5 -11 -11 0 -5 -5 -7
-11 -3 -8 5 -4 12 10 23 21 16 21 17 2 17 -11 0 -23 -6 -26 -14z"/>
<path d="M5659 3924 c18 -13 20 -18 10 -25 -11 -7 -10 -9 4 -9 9 0 17 4 17 9
0 13 -29 41 -43 41 -6 0 -1 -7 12 -16z"/>
<path d="M4570 3905 c0 -14 2 -25 4 -25 2 0 6 11 8 25 3 14 1 25 -3 25 -5 0
-9 -11 -9 -25z"/>
<path d="M4923 3915 c4 -8 2 -17 -3 -20 -6 -4 -6 -14 0 -26 6 -11 16 -16 22
-13 7 5 5 12 -7 21 -17 12 -17 13 -2 13 19 0 20 2 11 24 -3 9 -11 16 -16 16
-6 0 -8 -7 -5 -15z"/>
<path d="M4600 3905 c-11 -13 -11 -18 0 -28 10 -10 12 -9 7 5 -6 18 24 35 43
23 5 -3 10 -1 10 4 0 17 -46 13 -60 -4z"/>
<path d="M5415 3910 c-3 -5 -1 -10 4 -10 6 0 11 5 11 10 0 6 -2 10 -4 10 -3 0
-8 -4 -11 -10z"/>
<path d="M4803 3885 c0 -14 3 -27 7 -30 10 -6 35 24 26 32 -3 3 -6 1 -6 -5 0
-7 -4 -12 -10 -12 -5 0 -7 6 -4 14 3 8 1 17 -4 20 -5 3 -9 -6 -9 -19z"/>
<path d="M4746 3875 c4 -8 7 -15 9 -15 2 0 5 7 9 15 3 9 0 15 -9 15 -9 0 -12
-6 -9 -15z"/>
<path d="M4580 3849 c0 -6 -7 -9 -15 -6 -8 4 -17 2 -21 -4 -10 -17 3 -21 28
-8 12 7 27 12 31 11 5 -1 6 2 2 8 -8 13 -25 13 -25 -1z"/>
<path d="M5644 3828 c-4 -6 1 -17 11 -24 16 -12 16 -16 4 -31 -13 -16 -12 -17
4 -4 21 17 22 51 1 51 -8 0 -12 5 -9 10 3 6 4 10 1 10 -3 0 -8 -5 -12 -12z"/>
</g>
</svg>
